<svg width="184" height="39" viewBox="0 0 184 39" fill="none" xmlns="http://www.w3.org/2000/svg">
<path d="M26.1798 8.53307C25.9647 7.30865 25.7953 6.08377 25.6384 4.8589L25.5812 4.39968L25.553 4.16984L25.5461 4.11262C25.5438 4.09369 25.542 4.07246 25.5383 4.06L25.5198 3.9737C25.4714 3.74571 25.3841 3.53525 25.266 3.35111C25.1464 3.16742 24.9997 3.00773 24.8303 2.88497C24.6609 2.76267 24.4768 2.67175 24.2871 2.62098C24.0974 2.56975 23.9063 2.55267 23.7199 2.57067L22.8628 2.64913L21.9439 2.72944C21.6375 2.75574 21.3315 2.78159 21.0251 2.80513C19.7997 2.90389 18.5748 2.98973 17.3495 3.06542C16.7371 3.10465 16.1242 3.13834 15.5117 3.1725L15.2819 3.1845L15.167 3.1905L15.1384 3.19188L15.1245 3.1928L15.119 3.19419L15.0977 3.19927C15.0834 3.2025 15.0696 3.2048 15.0553 3.20665C15.041 3.2085 15.0267 3.20896 15.0137 3.21542C14.9874 3.22557 14.9602 3.22973 14.9339 3.23849C14.8301 3.27265 14.7387 3.33218 14.6575 3.3991C14.5762 3.46695 14.5084 3.54956 14.459 3.63863C14.4101 3.72817 14.3773 3.82093 14.3621 3.91508C14.3524 3.9617 14.3533 4.01016 14.3519 4.05769C14.3538 4.07016 14.3547 4.08216 14.3552 4.09416L14.3556 4.11215V4.12138V4.126L14.3561 4.13846L14.3648 4.3683L14.3944 5.28719C14.4345 6.51253 14.4622 7.73833 14.4853 8.96367C14.4922 9.27012 14.495 9.57657 14.4996 9.88302V9.89732L14.4992 9.92178L14.4978 9.97163L14.4945 10.0713L14.4853 10.2702C14.4835 10.3367 14.4742 10.4027 14.4655 10.4687C14.4567 10.5347 14.447 10.6011 14.4373 10.6671C14.4207 10.7996 14.3842 10.9293 14.3528 11.0594C14.3353 11.124 14.3219 11.19 14.2989 11.2528C14.2776 11.316 14.2555 11.3797 14.2329 11.4425C13.8664 12.4518 13.1224 13.3043 12.1777 13.8101C12.0582 13.8706 11.9382 13.9306 11.8149 13.9836C11.6899 14.0326 11.5639 14.0787 11.4374 14.1226C11.3087 14.1595 11.1785 14.1936 11.0484 14.225C10.9177 14.2536 10.7848 14.2716 10.6524 14.2915C10.5864 14.3025 10.5199 14.3067 10.4535 14.3109L10.2541 14.3215C10.0962 14.3293 10.0519 14.3256 9.96886 14.3265L9.50918 14.3275L7.67048 14.3182C7.05758 14.3109 6.44468 14.3067 5.83178 14.2965L4.12738 14.2665C4.03646 14.2661 3.94878 14.2804 3.86247 14.3118C3.77617 14.3427 3.69125 14.3893 3.61648 14.4525C3.54125 14.5153 3.47756 14.5933 3.42772 14.6791C3.37926 14.7659 3.34603 14.8614 3.3308 14.9681L3.32665 14.9879L3.32434 14.9981C3.32388 14.9999 3.32341 15.0008 3.32295 15.0041L3.32249 15.0184L3.31834 15.1333L3.30911 15.3631L3.29018 15.8228L3.25188 16.7421C3.2228 17.355 3.19603 17.9679 3.16188 18.5808C3.13096 19.1937 3.09358 19.8066 3.05758 20.42C3.01789 21.0329 2.98004 21.6458 2.93527 22.2592C2.91404 22.5656 2.89189 22.8721 2.86789 23.1785L2.80974 23.9576C2.80513 24.1334 2.83374 24.3129 2.89697 24.4874C2.9602 24.6619 3.05942 24.8289 3.18773 24.978C3.31557 25.1275 3.47525 25.2554 3.65617 25.3541L3.72448 25.3924C3.74801 25.4031 3.77247 25.4118 3.79647 25.4224L3.86939 25.4538C3.89339 25.4663 3.9197 25.4695 3.94462 25.4783L4.02123 25.5018C4.03416 25.5055 4.04708 25.5106 4.06 25.5138L4.09969 25.5212L4.18 25.5374L4.22061 25.5461C4.228 25.5475 4.23215 25.5494 4.24276 25.5503L4.27138 25.5535C4.88428 25.6167 5.49764 25.685 6.11054 25.757C7.3368 25.9033 8.56306 26.0621 9.78979 26.267C8.56537 26.4835 7.34049 26.6533 6.11562 26.8112C5.50318 26.8887 4.89074 26.9625 4.2783 27.0318L4.24969 27.035C4.24092 27.0364 4.22615 27.0364 4.21461 27.0373L4.14031 27.0405L3.99077 27.0461L3.91555 27.0479C3.89062 27.0479 3.8657 27.0456 3.84032 27.0442L3.68986 27.0341C3.63956 27.0295 3.58879 27.029 3.53894 27.0198L3.38895 26.9948C3.33911 26.9861 3.28834 26.9778 3.23849 26.9671L3.09035 26.9275C2.69528 26.8195 2.31684 26.6335 1.97993 26.3847C1.64255 26.1355 1.34949 25.8193 1.11827 25.4561C0.886582 25.0929 0.725973 24.678 0.642438 24.2469L0.625361 24.1662C0.619823 24.1389 0.617515 24.1117 0.613823 24.0849L0.594439 23.9211L0.58567 23.839L0.578748 23.7647L0.569056 23.6497L0.529826 23.1905C0.503058 22.8841 0.478136 22.5781 0.454137 22.2716C0.403831 21.6592 0.359987 21.0463 0.314757 20.4339C0.273221 19.8214 0.229838 19.2085 0.193377 18.5961C0.153687 17.9836 0.120919 17.3707 0.0863045 16.7583L0.0392293 15.8394L0.0161532 15.3797L0.00507673 15.1499L0 15.035L0.000461521 15.0184V14.9953L0.000923042 14.9478L0.00230761 14.8527C0.0064613 14.3473 0.103842 13.8341 0.292143 13.355C0.479521 12.8755 0.76151 12.4348 1.1095 12.0549C1.45841 11.6756 1.87747 11.3576 2.34453 11.1254C2.81113 10.8933 3.32434 10.7474 3.84401 10.6971L4.03923 10.6833C4.10154 10.6791 4.18138 10.675 4.20769 10.6745L4.43753 10.6671L4.8972 10.6547L5.81609 10.6307C6.42899 10.615 7.04143 10.6053 7.65433 10.5919L9.49257 10.5656L9.95224 10.5619C10.0219 10.561 10.1313 10.5615 10.1262 10.5573C10.1364 10.5559 10.1461 10.5555 10.1562 10.5555C10.1664 10.5559 10.1765 10.5568 10.1858 10.5527C10.2042 10.5467 10.2241 10.5476 10.243 10.543C10.261 10.5356 10.279 10.531 10.2984 10.5282C10.3155 10.5185 10.333 10.5116 10.3515 10.5075C10.3685 10.4987 10.3842 10.4876 10.4031 10.4821C10.4715 10.4461 10.5347 10.3962 10.5873 10.3372C10.6404 10.2781 10.6801 10.2098 10.7091 10.1392C10.7124 10.1304 10.7165 10.1216 10.7211 10.1129C10.7271 10.1045 10.7253 10.0939 10.7285 10.0852C10.7313 10.0662 10.7447 10.0496 10.7433 10.0289C10.7442 10.0192 10.7461 10.0095 10.7484 9.99978C10.7507 9.99009 10.7548 9.98086 10.753 9.97024C10.753 9.96009 10.7534 9.94994 10.7544 9.93978L10.7567 9.92455L10.7581 9.91671L10.759 9.91255V9.89825C10.7608 9.5918 10.7608 9.28535 10.765 8.9789C10.7765 7.7531 10.7931 6.5273 10.8217 5.30196L10.843 4.38261L10.8494 4.15277L10.8536 4.06369L10.8591 3.96724L10.873 3.77432C10.9016 3.51771 10.9473 3.26157 11.0216 3.01327C11.166 2.51621 11.4023 2.04777 11.7134 1.64163C12.0236 1.23503 12.4057 0.887505 12.8368 0.6189C13.2674 0.350756 13.7487 0.161994 14.2449 0.0701512C14.3685 0.0475367 14.4941 0.0332295 14.6182 0.0179993C14.6805 0.00923042 14.7428 0.00738434 14.8051 0.00507673L14.9921 0L15.0853 0H15.1088L15.1236 0.000461521L15.1522 0.00184609L15.2671 0.0064613L15.497 0.0170763C16.1099 0.0452291 16.7228 0.0733819 17.3357 0.107073C18.5615 0.171686 19.7877 0.245991 21.0135 0.333218C21.32 0.353987 21.6264 0.376601 21.9329 0.400139L22.8522 0.471675L23.3119 0.509058L23.5417 0.52798L23.6733 0.53998L23.8334 0.557518C24.258 0.610131 24.672 0.738434 25.0417 0.93735C25.4114 1.1358 25.74 1.39795 26.0053 1.70809C26.2716 2.01731 26.4756 2.37268 26.6067 2.7479C26.7387 3.12265 26.7973 3.51725 26.783 3.90078L26.777 4.04431C26.7765 4.07016 26.7738 4.08677 26.7719 4.10662L26.7655 4.16431L26.7396 4.39414L26.6865 4.85382C26.5412 6.08008 26.3833 7.30634 26.1798 8.53307Z" fill="#EB753B"/>
<path d="M20.6621 17.4548C20.4937 17.5443 20.3243 17.6293 20.1586 17.7216C19.9911 17.8097 19.8263 17.903 19.6625 17.9957C19.3352 18.1826 19.0136 18.376 18.7016 18.58C18.3882 18.7817 18.085 18.9958 17.7901 19.2164C17.6424 19.3263 17.4993 19.4417 17.3562 19.5552C17.2159 19.6729 17.0756 19.7887 16.9409 19.9106C16.6695 20.151 16.4101 20.4016 16.1674 20.6638C15.9264 20.9255 15.7003 21.1904 15.5005 21.4724L15.4243 21.5767C15.3994 21.6117 15.3768 21.6482 15.3528 21.6842C15.3062 21.7567 15.2572 21.8263 15.2115 21.8988L15.08 22.1185C15.0574 22.1545 15.0371 22.1919 15.0172 22.2297L14.9572 22.3419L14.8972 22.4536C14.8779 22.4914 14.8608 22.5302 14.8423 22.568C14.8063 22.6446 14.7671 22.7189 14.7334 22.7965L14.6337 23.0291C14.601 23.1066 14.5737 23.1869 14.5433 23.2654C14.4283 23.5824 14.3259 23.9032 14.2507 24.2355C14.174 24.5669 14.1071 24.9005 14.0633 25.2434L14.0453 25.3713L14.031 25.5005L14.0024 25.7594C13.9867 25.939 13.9677 26.1176 13.9548 26.2966C13.9437 26.4757 13.9271 26.6539 13.9207 26.8329L13.9068 27.1006C13.9022 27.1897 13.9008 27.2792 13.8976 27.3683C13.8759 28.0823 13.8865 28.7958 13.9244 29.5217C13.9405 29.8836 13.9636 30.2505 13.988 30.6188L14.0674 31.7366C14.0937 32.1118 14.1228 32.4912 14.1459 32.8724L14.2207 33.975L14.2437 34.2422L14.2557 34.3654L14.2617 34.4245L14.2687 34.4799C14.2867 34.6262 14.3088 34.7466 14.3347 34.8385C14.3605 34.9308 14.3877 34.9935 14.4159 35.0388C14.4242 35.0489 14.4297 35.0609 14.4371 35.0706C14.4454 35.0794 14.4505 35.0905 14.4593 35.0992C14.4634 35.1034 14.4676 35.108 14.4713 35.1126C14.475 35.1172 14.4773 35.1218 14.4837 35.1278C14.4948 35.1389 14.504 35.1514 14.5146 35.1629C14.6009 35.2543 14.7126 35.3281 14.8322 35.3748C14.9522 35.4209 15.0768 35.4408 15.1894 35.4311L16.2864 35.3965L17.4176 35.366C18.9259 35.3249 20.4346 35.2954 21.9428 35.2709L23.074 35.2557L23.6398 35.2488L23.7081 35.2478C23.7146 35.2465 23.7206 35.2455 23.7271 35.2446C23.7395 35.2428 23.752 35.2418 23.7645 35.2423C23.7774 35.2446 23.7885 35.2377 23.8005 35.2358C23.812 35.2331 23.824 35.2317 23.836 35.2308C23.9283 35.2095 24.0141 35.1671 24.0912 35.108C24.1669 35.0485 24.2357 34.9732 24.2749 34.8865C24.3164 34.8011 24.3414 34.7129 24.345 34.6128C24.346 34.6068 24.3469 34.6003 24.3478 34.5943V34.5265L24.3474 34.3853L24.3469 34.1023L24.3455 33.5365L24.3524 31.2737L24.3718 29.0108C24.3741 28.9088 24.3714 28.8525 24.381 28.661C24.3852 28.5802 24.3903 28.4995 24.3958 28.4192C24.4018 28.3389 24.417 28.2581 24.4286 28.1778C24.4415 28.0975 24.454 28.0172 24.4697 27.9378C24.4886 27.8589 24.5089 27.78 24.5297 27.7015C24.568 27.5432 24.6257 27.3909 24.6833 27.2391C24.6981 27.2012 24.7124 27.1634 24.7281 27.126L24.7798 27.0161C24.8149 26.9428 24.8509 26.8703 24.8873 26.7978C24.9049 26.7614 24.9256 26.7263 24.9464 26.6922L25.0092 26.5883C25.0516 26.5196 25.0936 26.4503 25.1393 26.3839C25.1869 26.3188 25.2353 26.2542 25.2847 26.1905C25.3341 26.1268 25.3825 26.0622 25.4379 26.0036C25.5468 25.885 25.653 25.764 25.7753 25.6593C26.2493 25.2254 26.8202 24.8982 27.4354 24.7104C27.5905 24.6698 27.746 24.6273 27.9038 24.5996C27.9828 24.5872 28.0621 24.5756 28.1415 24.565L28.2606 24.5498C28.3003 24.5456 28.34 24.5447 28.3797 24.5424C28.459 24.5382 28.5384 24.5355 28.6178 24.5332L28.6773 24.5318L28.7069 24.5313L28.7258 24.5318L28.7964 24.5332L29.0793 24.5396C29.8339 24.5553 30.588 24.577 31.3426 24.5978C32.0972 24.619 32.8513 24.6449 33.6059 24.6702L34.1718 24.6915L34.4547 24.7021L34.5959 24.7072L34.6314 24.7085L34.649 24.709H34.6559H34.684C34.835 24.7173 34.985 24.6979 35.1313 24.6421L35.1456 24.6379L35.1585 24.631L35.1848 24.6176C35.2024 24.6089 35.2208 24.6015 35.2393 24.5936C35.2554 24.5825 35.2725 24.5719 35.2896 24.5618C35.3066 24.5512 35.3265 24.5438 35.3408 24.5299C35.3708 24.5036 35.4091 24.4852 35.4368 24.4547C35.452 24.4409 35.4677 24.4279 35.4839 24.4146C35.4991 24.4007 35.5111 24.3841 35.5259 24.3693C35.638 24.2484 35.7303 24.103 35.7783 23.9373C35.7829 23.9161 35.7885 23.8953 35.7945 23.8746L35.8042 23.8432C35.8079 23.8326 35.8074 23.8215 35.8092 23.8104C35.812 23.7883 35.8157 23.7666 35.8203 23.7444L35.8235 23.7278C35.8245 23.7209 35.8263 23.72 35.8268 23.7057L35.8305 23.635L35.8595 23.0692L35.9214 21.9376C36.0068 20.4284 36.1032 18.9197 36.2145 17.4105C36.2703 16.6559 36.3289 15.9013 36.3921 15.1467L36.4041 15.0051L36.4069 14.9695C36.4078 14.958 36.4092 14.9446 36.4092 14.9377L36.412 14.8869L36.4194 14.784L36.4212 14.7581L36.4198 14.7328L36.4175 14.6811C36.4161 14.6465 36.4152 14.6118 36.4148 14.5768L36.4009 14.4734C36.3954 14.4392 36.3949 14.4028 36.3857 14.3691L36.3612 14.2662L36.3497 14.214C36.3451 14.1969 36.3381 14.1803 36.3326 14.1637L36.298 14.0617C36.2883 14.0262 36.2698 13.9957 36.2555 13.962L36.2112 13.8619L36.1563 13.7668C36.1369 13.7354 36.1221 13.7003 36.0986 13.6717L36.034 13.5808C36.0229 13.5656 36.0128 13.5494 36.0012 13.5351L35.9643 13.4931C35.7709 13.2624 35.5212 13.0685 35.2323 12.9342C35.1959 12.9181 35.1585 12.9051 35.1216 12.8904C35.0842 12.8765 35.0473 12.8585 35.0085 12.8479L34.8917 12.8156C34.8525 12.8045 34.8133 12.7911 34.7727 12.7865L34.6508 12.7653L34.589 12.7547L34.5184 12.7473L34.2354 12.7164C33.4809 12.631 32.7263 12.5465 31.9712 12.4413C32.7249 12.3292 33.479 12.2378 34.2327 12.1455L34.5156 12.1122L34.5862 12.1039L34.6656 12.0993L34.8267 12.091C34.8807 12.0864 34.9342 12.0906 34.9887 12.0929L35.1516 12.1021C35.206 12.1058 35.2596 12.1169 35.3136 12.1242C35.3676 12.133 35.4225 12.1404 35.4765 12.1515C35.9075 12.2442 36.3234 12.4408 36.6829 12.7224L36.7507 12.775C36.7729 12.793 36.7932 12.8133 36.8144 12.8322L36.9409 12.9499C36.9847 12.9882 37.0198 13.0334 37.0595 13.0759L37.1749 13.2065L37.2783 13.3473C37.3115 13.3953 37.3489 13.441 37.377 13.4927L37.4661 13.645C37.4804 13.6708 37.4961 13.6957 37.5095 13.722L37.5469 13.8023L37.6207 13.9648C37.6461 14.0188 37.6618 14.0765 37.6826 14.1323C37.7019 14.1891 37.7218 14.2454 37.7393 14.3031L37.7809 14.478L37.8007 14.5662L37.8104 14.6105L37.8164 14.6552L37.8395 14.8348L37.8501 14.9252L37.8575 14.9995L37.8709 15.1407C37.941 15.8949 38.0065 16.6485 38.0693 17.4027C38.1944 18.9105 38.3047 20.4187 38.4044 21.927L38.4768 23.0581L38.5114 23.6235L38.5156 23.6941C38.5165 23.7029 38.5165 23.7255 38.5165 23.7426V23.7966C38.5165 23.8686 38.5161 23.9406 38.5147 24.013C38.5133 24.049 38.5147 24.0855 38.5105 24.1215L38.4999 24.2299C38.4921 24.3024 38.4842 24.3744 38.475 24.4469C38.3015 25.6048 37.5718 26.6755 36.526 27.2649C36.0049 27.5603 35.4091 27.7412 34.8068 27.779L34.6937 27.7869L34.6476 27.7897L34.6121 27.7915L34.4708 27.798L34.1879 27.8109L33.6221 27.8372C32.868 27.8695 32.1138 27.9023 31.3597 27.9304C30.6056 27.9581 29.8515 27.9872 29.0973 28.0093L28.8144 28.0186L28.7438 28.0209L28.7277 28.0213L28.7221 28.0227L28.711 28.025C28.6963 28.0283 28.6815 28.0301 28.6667 28.0315C28.6594 28.0324 28.652 28.0315 28.6446 28.0333C28.6377 28.0356 28.6307 28.038 28.6238 28.0403C28.61 28.0444 28.5961 28.0476 28.5818 28.05C28.5781 28.0504 28.5749 28.0509 28.5712 28.0518L28.5615 28.0564C28.555 28.0592 28.5486 28.062 28.5417 28.0647C28.5283 28.0698 28.5149 28.0735 28.5015 28.0763C28.3986 28.1201 28.3054 28.1861 28.2297 28.2683C28.2071 28.2853 28.1955 28.3126 28.1766 28.3324C28.166 28.3416 28.1609 28.3555 28.154 28.367C28.1471 28.379 28.1392 28.3901 28.1309 28.4007C28.1244 28.4127 28.1208 28.4261 28.1138 28.4376C28.1106 28.4436 28.1074 28.4492 28.1037 28.4552C28.1 28.4607 28.0958 28.4662 28.0949 28.4732C28.0912 28.4861 28.0866 28.4986 28.0811 28.5106C28.0783 28.5166 28.0755 28.5226 28.0723 28.5281C28.0704 28.5346 28.07 28.541 28.0681 28.5475C28.0626 28.5733 28.0497 28.5964 28.0497 28.6232C28.0478 28.6361 28.0446 28.6485 28.0404 28.661C28.04 28.6744 28.0405 28.6878 28.0391 28.7007C28.0391 28.7141 28.0335 28.7261 28.0349 28.7399C28.0363 28.7538 28.0372 28.7672 28.0368 28.7805C28.034 28.7773 28.0372 28.9093 28.0391 28.9961L28.0797 31.2589L28.1078 33.5218L28.112 34.0876L28.1138 34.3705L28.1148 34.5117L28.1152 34.5856L28.1115 34.7083C28.0968 35.3623 27.9325 36.0223 27.6315 36.6089C27.3334 37.1978 26.8963 37.7087 26.3734 38.1056C25.8505 38.502 25.2358 38.7863 24.5883 38.9142C24.507 38.928 24.4258 38.9414 24.3446 38.9534C24.2634 38.9645 24.1817 38.9792 24.1004 38.9825C24.0188 38.988 23.9371 38.9922 23.8554 38.9954L23.7331 39H23.6597L23.0939 38.9986L21.9622 38.9935C20.4535 38.9829 18.9448 38.9677 17.4361 38.9405L16.3044 38.9206L15.1386 38.8934C14.8179 38.8837 14.5003 38.8376 14.1948 38.7568C13.8888 38.676 13.5948 38.5597 13.3175 38.4143C12.7632 38.1236 12.2735 37.7119 11.896 37.2079C11.8494 37.1447 11.8046 37.0796 11.7603 37.015C11.716 36.9504 11.6731 36.8761 11.6311 36.8064C11.5891 36.7353 11.5526 36.6615 11.5148 36.5881C11.4783 36.5147 11.4465 36.4395 11.4137 36.3652C11.2882 36.0652 11.2092 35.7638 11.1603 35.4869C11.1114 35.2091 11.0906 34.9539 11.0805 34.7245L11.0768 34.6386L11.0745 34.5565C11.0726 34.5006 11.0717 34.4494 11.0712 34.3973L11.0703 34.0991L11.0879 32.9398L11.1123 31.8132C11.1266 31.0572 11.1492 30.2865 11.194 29.5028C11.2171 29.1119 11.2498 28.7169 11.2877 28.3223C11.3098 28.1243 11.3283 27.9272 11.356 27.7292L11.3952 27.4329C11.4086 27.3341 11.4248 27.2358 11.4395 27.1371C11.4977 26.7429 11.572 26.3511 11.6528 25.9625C11.6929 25.7682 11.7391 25.5753 11.782 25.3819C11.8051 25.2841 11.8314 25.1834 11.8563 25.0847L11.8946 24.9361L11.9371 24.7875C12.0469 24.3919 12.1807 23.9978 12.3363 23.611C12.4895 23.2243 12.6723 22.8449 12.8772 22.4794C13.0807 22.1129 13.3133 21.7617 13.569 21.4313L13.665 21.3076C13.6964 21.2661 13.7291 21.2254 13.7638 21.1862L13.9668 20.9495C14.036 20.8724 14.108 20.7976 14.1791 20.7224C14.2151 20.685 14.2497 20.6467 14.2867 20.6107L14.3983 20.5036C14.4736 20.433 14.5451 20.3592 14.6231 20.2927L14.8543 20.091C14.9309 20.0241 15.0136 19.9636 15.0925 19.9C15.1719 19.8367 15.2517 19.774 15.3334 19.7167C15.6546 19.4772 15.9901 19.2626 16.3307 19.0628C16.6718 18.8634 17.0198 18.6811 17.3747 18.5186C17.7291 18.3548 18.0873 18.2052 18.451 18.0751C19.176 17.8097 19.9149 17.603 20.6621 17.4548Z" fill="#EB753B"/>
<path d="M10.8869 22.2125C10.843 22.0893 10.8006 21.9652 10.7618 21.8396C10.7226 21.7141 10.6884 21.5872 10.6529 21.4598C10.6358 21.3961 10.6201 21.332 10.6049 21.2674C10.5892 21.2032 10.5744 21.1386 10.561 21.0735L10.52 20.8783L10.484 20.6817C10.3921 20.1555 10.3524 19.6133 10.3658 19.0604C10.3783 18.7844 10.3963 18.5047 10.442 18.2255C10.4604 18.0852 10.4895 17.9453 10.5181 17.805C10.531 17.7344 10.5513 17.6656 10.5684 17.5955C10.5869 17.5258 10.603 17.4552 10.6238 17.3855C10.7872 16.8289 11.0323 16.2783 11.3627 15.7693L11.4928 15.5823C11.5367 15.52 11.5796 15.4568 11.6285 15.3982C11.7241 15.2796 11.8168 15.1568 11.9216 15.046L12.0771 14.8767C12.1302 14.8213 12.1861 14.7701 12.241 14.7161C12.2964 14.6634 12.3513 14.609 12.408 14.5578L12.5825 14.4091C13.0528 14.0169 13.572 13.6915 14.1111 13.4312C14.1784 13.3984 14.2458 13.3638 14.3137 13.3333L14.5181 13.2452L14.724 13.1589C14.7923 13.1312 14.8596 13.1086 14.9275 13.0832C15.0632 13.0347 15.1989 12.9817 15.3364 12.9383L15.5422 12.8704C15.6105 12.8474 15.6825 12.8294 15.7522 12.8086L15.9641 12.7491L16.1745 12.6964C16.3157 12.66 16.4542 12.6304 16.594 12.5995C16.8728 12.5395 17.1479 12.4925 17.4206 12.4472C18.508 12.2746 19.539 12.1925 20.4704 12.0545C20.5853 12.0365 20.7011 12.0189 20.8128 11.9991L21.1363 11.9349C21.1903 11.9239 21.2443 11.9169 21.2979 11.9031L21.4585 11.8648C21.5651 11.838 21.6726 11.8168 21.7783 11.7868C21.9897 11.7245 22.202 11.6696 22.4111 11.5971L22.5684 11.5463L22.6469 11.5205L22.7249 11.4914L23.036 11.3756C24.6891 10.7304 26.2449 9.72609 27.7098 8.52891L27.7324 8.51044C28.5322 7.85693 29.7105 7.97554 30.3645 8.77536C30.5994 9.06289 30.7341 9.39703 30.7738 9.7404L30.7881 9.86178L30.7997 9.96747L30.8195 10.1719C30.832 10.3067 30.8431 10.4401 30.8532 10.573C30.8735 10.8384 30.8874 11.1019 30.8975 11.3654C30.9174 11.892 30.9247 12.4181 30.9109 12.9452C30.8989 13.4723 30.8721 13.9998 30.8237 14.5287C30.8006 14.7931 30.7724 15.0576 30.7397 15.3225C30.7064 15.587 30.6658 15.8523 30.6234 16.1172C30.448 17.1769 30.1817 18.2402 29.7806 19.286C29.5739 19.8071 29.3417 20.3258 29.0523 20.8271C28.769 21.3297 28.433 21.8166 28.0444 22.2702C27.851 22.4978 27.6392 22.7133 27.4186 22.9196C27.3041 23.0202 27.1938 23.1227 27.0738 23.2168C27.0143 23.2644 26.9566 23.3133 26.8952 23.3585L26.7106 23.4933L26.664 23.527L26.6132 23.5611L26.5112 23.6294C26.4438 23.6742 26.3732 23.7226 26.3137 23.7526L25.9417 23.9566C25.8171 24.0273 25.6952 24.0817 25.5729 24.1408C25.4506 24.1985 25.3293 24.2589 25.2065 24.3139C24.2193 24.7491 23.197 25.0643 22.1628 25.2618C21.1276 25.4547 20.0785 25.5249 19.048 25.4714C18.0178 25.4146 17.0034 25.236 16.0527 24.9051C17.056 24.8257 18.0234 24.6743 18.9547 24.4389C19.8856 24.2059 20.7805 23.8962 21.6297 23.5163C22.4775 23.1324 23.281 22.681 24.0218 22.1706C24.1145 22.1069 24.2036 22.0386 24.2945 21.9735C24.3841 21.9075 24.4782 21.8424 24.5576 21.775L24.8064 21.578C24.8525 21.5443 24.8779 21.5152 24.9084 21.4852L24.9531 21.4409L24.9757 21.4192L25.0002 21.3933C25.1331 21.2581 25.2582 21.1146 25.3777 20.966C25.494 20.8132 25.6052 20.6558 25.7096 20.4911C26.1226 19.8283 26.43 19.0585 26.6501 18.2356C26.8726 17.4118 27.0124 16.5377 27.0987 15.646C27.1195 15.4226 27.1384 15.1988 27.1513 14.9727C27.1661 14.7474 27.179 14.5208 27.1864 14.2938C27.1952 14.0667 27.1989 13.8387 27.2016 13.6103C27.2049 13.3818 27.2053 13.1533 27.2016 12.924C27.1933 12.4657 27.18 12.0065 27.1518 11.5496C27.1375 11.3211 27.1204 11.0931 27.1029 10.8674C27.0937 10.7548 27.0835 10.6427 27.0724 10.5324L27.0553 10.3695L27.0387 10.2292L30.1028 11.4402C29.2494 12.1394 28.3416 12.7957 27.3586 13.3638C27.1167 13.5106 26.8615 13.6398 26.6109 13.775C26.484 13.8406 26.3543 13.9024 26.2265 13.9661L26.0335 14.0607L25.8369 14.1498L25.4414 14.3228L25.038 14.4825C24.9707 14.5084 24.9042 14.5365 24.8359 14.5605L24.6305 14.633C24.493 14.6801 24.3578 14.7308 24.2179 14.7728L23.7993 14.8974L23.6945 14.9284L23.5884 14.9556L23.3761 15.0091C23.234 15.0433 23.0941 15.0839 22.9497 15.1102L22.5191 15.1956C22.3755 15.2233 22.2292 15.2417 22.0848 15.2648L21.8674 15.2976C21.7954 15.3091 21.7215 15.3142 21.6486 15.323L21.2111 15.3654C21.0685 15.376 20.9291 15.3839 20.7893 15.3922C19.6798 15.4457 18.6594 15.4065 17.7054 15.4273C17.5877 15.431 17.4682 15.4328 17.3519 15.4379C17.2369 15.4439 17.1179 15.4471 17.0053 15.4554C16.8913 15.4623 16.7763 15.4683 16.6656 15.4799L16.4976 15.4946L16.3333 15.5145C16.2239 15.526 16.1127 15.544 16.0015 15.5606C15.8893 15.5759 15.7804 15.5994 15.6687 15.6183C15.6138 15.6289 15.5565 15.6373 15.503 15.6493L15.3447 15.6857L15.1855 15.7208C15.1329 15.7333 15.0821 15.7494 15.0304 15.7633C14.2001 15.9889 13.4474 16.3651 12.8234 16.9452L12.7099 17.0578C12.6725 17.0961 12.6319 17.1321 12.5977 17.1732C12.5271 17.254 12.4519 17.3329 12.3859 17.4201L12.283 17.5489L12.187 17.6846L12.1385 17.7529C12.1228 17.7759 12.1085 17.7999 12.0933 17.8235L12.0019 17.9661C11.767 18.3533 11.5745 18.7844 11.4172 19.2413C11.1093 20.1569 10.957 21.17 10.8869 22.2125Z" fill="#EB753B"/>
<path d="M175.434 7.407L175.471 7.777C175.471 8.78833 175.311 9.65167 174.99 10.367C174.669 10.6137 174.164 10.811 173.473 10.959L179.652 29.237L183.167 29.681C183.167 30.6923 182.883 31.7653 182.316 32.9H173.325L172.992 30.865C174.028 30.4703 174.706 30.2113 175.027 30.088L173.547 25.907H165.222C164.482 28.1023 164.087 29.2493 164.038 29.348L166.591 29.681C166.591 30.199 166.492 30.8033 166.295 31.494C166.098 32.16 165.913 32.6287 165.74 32.9H156.749L156.416 30.865C157.526 30.3963 158.525 30.051 159.413 29.829L165.629 10.811C163.976 10.5643 162.731 10.2437 161.892 9.849C161.892 9.13367 162.003 8.50467 162.225 7.962C162.743 7.78933 163.952 7.592 165.851 7.37C167.775 7.12333 169.6 7 171.327 7C173.078 7 174.447 7.13567 175.434 7.407ZM170.661 17.582L169.588 12.698H169.218L168.034 17.804L166.295 22.429H172.474L170.661 17.582Z" fill="white"/>
<path d="M154.931 10.293L154.82 32.9H150.084L137.874 12.994C137.775 20.2213 137.713 25.6727 137.689 29.348L140.242 29.681C140.242 30.6923 139.958 31.7653 139.391 32.9H130.4L130.067 30.865C131.448 30.2977 132.484 29.94 133.175 29.792C133.175 29.718 133.064 23.1937 132.842 10.219L129.771 9.257L130.067 7H139.687L150.454 26.314L149.899 10.219L146.828 9.257L147.124 7H156.744C156.719 7 156.719 7.02467 156.744 7.074C156.793 7.12333 156.842 7.23433 156.892 7.407C156.966 7.555 157.04 7.74 157.114 7.962C157.262 8.35667 157.36 9.01033 157.41 9.923C156.152 10.1203 155.325 10.2437 154.931 10.293Z" fill="white"/>
<path d="M128.036 7C128.011 7 128.011 7.02467 128.036 7.074C128.085 7.12333 128.135 7.23433 128.184 7.407C128.258 7.555 128.332 7.74 128.406 7.962C128.554 8.35667 128.653 9.01033 128.702 9.923C127.444 10.1203 126.618 10.2437 126.223 10.293L126.038 29.348L128.591 29.681C128.591 30.6923 128.307 31.7653 127.74 32.9H118.749L118.416 30.865C119.797 30.2977 120.833 29.94 121.524 29.792C121.499 28.3367 121.462 26.2893 121.413 23.65C121.339 17.73 121.265 13.253 121.191 10.219L118.12 9.257L118.416 7H128.036Z" fill="white"/>
<path d="M116.381 19.395C116.381 24.8217 115.086 28.5957 112.496 30.717C111.435 31.5557 110.288 32.1353 109.055 32.456C107.822 32.752 106.206 32.9 104.208 32.9H94.6251L94.2921 30.865C96.1668 30.1743 97.2028 29.8167 97.4001 29.792C97.4001 29.718 97.2891 23.1937 97.0671 10.219C95.9818 9.94767 94.9581 9.627 93.9961 9.257C94.1441 7.97433 94.2428 7.222 94.2921 7H104.097C106.514 7 108.438 7.24667 109.869 7.74C111.324 8.23333 112.607 9.109 113.717 10.367C115.493 12.439 116.381 15.4483 116.381 19.395ZM104.541 29.311C107.353 29.311 109.215 28.6327 110.128 27.276C111.065 25.9193 111.534 23.576 111.534 20.246C111.534 16.916 111.016 14.4987 109.98 12.994C108.944 11.4647 107.217 10.7 104.8 10.7H102.099C102 19.0127 101.939 25.2163 101.914 29.311H104.541Z" fill="white"/>
<path d="M93.1819 19.395C93.1819 24.8217 91.8869 28.5957 89.2969 30.717C88.2362 31.5557 87.0892 32.1353 85.8559 32.456C84.6225 32.752 83.0069 32.9 81.0089 32.9H71.4259L71.0929 30.865C72.9675 30.1743 74.0035 29.8167 74.2009 29.792C74.2009 29.718 74.0899 23.1937 73.8679 10.219C72.7825 9.94767 71.7589 9.627 70.7969 9.257C70.9449 7.97433 71.0435 7.222 71.0929 7H80.8979C83.3152 7 85.2392 7.24667 86.6699 7.74C88.1252 8.23333 89.4079 9.109 90.5179 10.367C92.2939 12.439 93.1819 15.4483 93.1819 19.395ZM81.3419 29.311C84.1539 29.311 86.0162 28.6327 86.9289 27.276C87.8662 25.9193 88.3349 23.576 88.3349 20.246C88.3349 16.916 87.8169 14.4987 86.7809 12.994C85.7449 11.4647 84.0182 10.7 81.6009 10.7H78.8999C78.8012 19.0127 78.7395 25.2163 78.7149 29.311H81.3419Z" fill="white"/>
<path d="M63.018 7.407L63.055 7.777C63.055 8.78833 62.8947 9.65167 62.574 10.367C62.2533 10.6137 61.7477 10.811 61.057 10.959L67.236 29.237L70.751 29.681C70.751 30.6923 70.4673 31.7653 69.9 32.9H60.909L60.576 30.865C61.612 30.4703 62.2903 30.2113 62.611 30.088L61.131 25.907H52.806C52.066 28.1023 51.6713 29.2493 51.622 29.348L54.175 29.681C54.175 30.199 54.0763 30.8033 53.879 31.494C53.6817 32.16 53.4967 32.6287 53.324 32.9H44.333L44 30.865C45.11 30.3963 46.109 30.051 46.997 29.829L53.213 10.811C51.5603 10.5643 50.3147 10.2437 49.476 9.849C49.476 9.13367 49.587 8.50467 49.809 7.962C50.327 7.78933 51.5357 7.592 53.435 7.37C55.359 7.12333 57.1843 7 58.911 7C60.6623 7 62.0313 7.13567 63.018 7.407ZM58.245 17.582L57.172 12.698H56.802L55.618 17.804L53.879 22.429H60.058L58.245 17.582Z" fill="white"/>
</svg>
