<svg width="140" height="30" viewBox="0 0 140 30" fill="none" xmlns="http://www.w3.org/2000/svg">
<path d="M28.5937 16.3828V17.3672C28.5937 19.0266 27.9 20.6016 26.6953 21.7359L24.8718 21.4594C25.4665 20.4785 25.781 19.3534 25.7812 18.2063V16.4813C25.7812 15.511 25.5562 14.5688 25.1437 13.725C24.839 13.0969 24.4218 12.525 23.9109 12.0328L23.9156 12.0281C24.0456 11.7916 24.237 11.5945 24.4696 11.4575C24.7023 11.3206 24.9675 11.2489 25.2375 11.25C25.5609 11.25 25.875 11.3531 26.1375 11.5453C27.6843 12.6891 28.5937 14.4797 28.5937 16.3828Z" fill="#FCD770"/>
<path d="M23.3625 11.5502C23.5594 11.7002 23.7469 11.8596 23.9109 12.0331C24.4219 12.5252 24.8391 13.0971 25.1437 13.7252C25.5562 14.569 25.7812 15.5112 25.7812 16.4815V18.2065C25.7812 19.369 25.4578 20.494 24.8719 21.4596L20.475 20.7846V20.7799C20.2641 19.969 20.1562 19.1393 20.1562 18.2956V16.3924C20.1562 15.7409 20.2219 15.0893 20.3484 14.4518C20.5781 14.5034 20.8266 14.5315 21.0938 14.5315C22.1297 14.5315 22.9688 14.1096 22.9688 13.594C22.9688 13.2612 22.6219 12.9706 22.1016 12.8065L22.2422 11.269C22.4382 11.238 22.6385 11.247 22.831 11.2953C23.0235 11.3437 23.2043 11.4304 23.3625 11.5502ZM17.7047 11.4518C17.9531 11.5924 18.1547 11.7987 18.2906 12.0565V12.0612C17.6951 12.6332 17.2213 13.3195 16.8975 14.0791C16.5737 14.8387 16.4066 15.6558 16.4062 16.4815V18.2065C16.4062 18.8956 16.5234 19.5706 16.7438 20.2081L14.1141 19.8049C13.7766 19.0456 13.5938 18.2206 13.5938 17.3674V16.3831C13.5945 15.9318 13.6464 15.482 13.7484 15.0424C14.0672 13.6596 14.8734 12.4174 16.05 11.5456C16.3125 11.3534 16.6266 11.2502 16.95 11.2502C17.2219 11.2502 17.4797 11.3206 17.7047 11.4518Z" fill="#FCD770"/>
<path d="M19.9453 11.2594L20.0859 12.8062C19.5656 12.9703 19.2188 13.2609 19.2188 13.5937C19.2188 13.9781 19.6828 14.3062 20.3484 14.4516C20.2212 15.0906 20.1568 15.7406 20.1563 16.3922V18.2953C20.1563 19.1391 20.2641 19.9688 20.475 20.7797L17.5313 20.3297L16.7438 20.2078C16.5234 19.5703 16.4062 18.8953 16.4062 18.2062V16.4812C16.4062 14.8031 17.0953 13.2094 18.2906 12.0609V12.0562C18.4781 11.8734 18.675 11.7047 18.8859 11.55C19.1484 11.3578 19.4672 11.25 19.7953 11.25C19.8469 11.25 19.8938 11.2547 19.9406 11.2594H19.9453Z" fill="#FCD770"/>
<path d="M22.9688 13.5938C22.9688 14.1094 22.1297 14.5313 21.0938 14.5313C20.8266 14.5313 20.5781 14.5031 20.3484 14.4516C19.6828 14.3063 19.2188 13.9781 19.2188 13.5938C19.2188 13.2609 19.5656 12.9703 20.0859 12.8063L19.9453 11.2594L19.6922 8.49844C19.6875 8.45625 19.6875 8.41875 19.6875 8.37656C19.6875 7.63125 20.2875 7.03125 21.0328 7.03125H21.1547C21.3314 7.03094 21.5065 7.06553 21.6699 7.13303C21.8332 7.20053 21.9817 7.29961 22.1067 7.4246C22.2316 7.54958 22.3307 7.69801 22.3982 7.86137C22.4657 8.02473 22.5003 8.19981 22.5 8.37656C22.5 8.41875 22.5 8.45625 22.4953 8.49844L22.2422 11.2688L22.1016 12.8063C22.6219 12.9703 22.9688 13.2609 22.9688 13.5938Z" fill="#CF9E76"/>
<path d="M10.7391 2.40469C10.9031 2.36719 11.0766 2.34375 11.25 2.34375C12.0141 2.34375 12.6984 2.70938 13.125 3.28125L13.1156 3.32813C12.5876 3.22137 12.0389 3.3002 11.5623 3.55131C11.0858 3.80241 10.7105 4.21039 10.5 4.70625C10.4391 4.70157 10.3781 4.6875 10.3125 4.6875C9.13594 4.6875 8.17031 5.55938 8.00156 6.68907C6.63281 7.08282 5.625 8.34375 5.625 9.84375C5.625 11.1234 6.35625 12.225 7.425 12.7688C7.16794 13.1512 7.03084 13.6017 7.03125 14.0625C7.03125 14.8969 7.47188 15.6234 8.12813 16.0406C8.02969 16.2984 7.96875 16.5797 7.96875 16.875C7.96875 18.1688 9.01875 19.2328 10.3125 19.2328C10.1906 19.2234 10.0734 19.2188 9.95625 19.2188H9.84375C8.92969 19.2188 8.07656 19.4813 7.35469 19.9359L6.09375 16.4063C4.8 16.4063 3.75 15.3563 3.75 14.0625C3.75 13.7672 3.81094 13.4859 3.90938 13.2281C3.25313 12.8109 2.8125 12.0844 2.8125 11.25C2.8125 10.7719 2.95781 10.3266 3.20625 9.95625C2.1375 9.4125 1.40625 8.31094 1.40625 7.03125C1.40625 5.53125 2.41406 4.27032 3.78281 3.87657C3.95156 2.74688 4.91719 1.875 6.09375 1.875C6.15938 1.875 6.22031 1.88907 6.28125 1.89375C6.46078 1.47056 6.76107 1.10969 7.14458 0.856234C7.52809 0.602783 7.97781 0.468006 8.4375 0.468753C9.59062 0.468753 10.5469 1.30313 10.7391 2.40469Z" fill="#8CC152"/>
<path d="M17.1375 9.14062C17.4285 9.43422 17.6361 9.79996 17.7391 10.2003C17.8421 10.6006 17.8367 11.0212 17.7234 11.4187L17.7047 11.4516C17.4755 11.3185 17.215 11.2489 16.95 11.25C16.6266 11.25 16.3125 11.3531 16.05 11.5453C14.807 12.4612 13.9617 13.8181 13.6875 15.3375C13.6266 15.6797 13.5938 16.0312 13.5938 16.3828V17.3672C13.5938 18.2203 13.7766 19.0453 14.1141 19.8047L10.6688 19.275C10.5469 19.2562 10.4297 19.2422 10.3125 19.2328C9.01875 19.2328 7.96875 18.1687 7.96875 16.875C7.96875 16.5797 8.02969 16.2984 8.12813 16.0406C7.47188 15.6234 7.03125 14.8969 7.03125 14.0625C7.03125 13.5844 7.17656 13.1391 7.425 12.7687C6.35625 12.225 5.625 11.1234 5.625 9.84375C5.625 8.34375 6.63281 7.08281 8.00156 6.68906C8.17031 5.55937 9.13594 4.6875 10.3125 4.6875C10.3781 4.6875 10.4391 4.70156 10.5 4.70625C10.7105 4.21038 11.0858 3.80241 11.5623 3.5513C12.0389 3.30019 12.5876 3.22136 13.1156 3.32812C14.0578 3.51562 14.7938 4.26562 14.9578 5.21718C15.1219 5.17968 15.2953 5.15625 15.4688 5.15625C16.7625 5.15625 17.8125 6.20625 17.8125 7.5C17.8125 8.1375 17.5547 8.71875 17.1375 9.14062ZM2.71875 22.9687H5.25C5.12434 23.5874 5.12434 24.2251 5.25 24.8437H1.40625C1.14844 24.8437 0.914062 24.7406 0.745312 24.5672C0.571875 24.3984 0.46875 24.1641 0.46875 23.9062C0.46875 23.3906 0.890625 22.9687 1.40625 22.9687H2.71875ZM2.90156 21.1125L5.69063 21.7359C5.48906 22.1203 5.33906 22.5328 5.25 22.9687H2.71875C2.25469 22.9687 1.875 22.5891 1.875 22.125V21.9375C1.87524 21.8112 1.90376 21.6866 1.95845 21.5727C2.01314 21.4589 2.09263 21.3587 2.19107 21.2796C2.28952 21.2005 2.40443 21.1444 2.52737 21.1155C2.65031 21.0866 2.77817 21.0856 2.90156 21.1125ZM5.69063 26.0766L2.90156 26.7C2.77817 26.7269 2.65031 26.7259 2.52737 26.697C2.40443 26.6681 2.28952 26.612 2.19107 26.5329C2.09263 26.4538 2.01314 26.3536 1.95845 26.2398C1.90376 26.1259 1.87524 26.0013 1.875 25.875V25.6875C1.875 25.2234 2.25469 24.8437 2.71875 24.8437H5.25C5.33906 25.2797 5.48906 25.6922 5.69063 26.0766Z" fill="#B4DD7F"/>
<path d="M28.0688 22.4812C27.736 22.0969 27.2719 21.825 26.7423 21.7453L26.6954 21.7359L24.872 21.4594L20.4751 20.7844V20.7797L17.5313 20.3297L16.7438 20.2078L14.1141 19.8047L10.6688 19.275C10.4331 19.2379 10.1949 19.2191 9.95633 19.2188H9.84383C8.92976 19.2188 8.07664 19.4812 7.35476 19.9359C6.65164 20.3766 6.07508 21 5.6907 21.7359C5.18861 22.6897 5.03289 23.788 5.25007 24.8438C5.33914 25.2797 5.48914 25.6922 5.6907 26.0766C5.91101 26.4984 6.19695 26.8875 6.52976 27.2203C6.96446 27.6563 7.48101 28.002 8.04975 28.2377C8.61848 28.4734 9.22819 28.5944 9.84383 28.5938H9.95633C10.1907 28.5938 10.4298 28.575 10.6688 28.5375L17.5313 27.4828L26.7423 26.0672C27.2579 25.9871 27.728 25.7253 28.0675 25.329C28.4071 24.9327 28.5937 24.4281 28.5938 23.9062C28.5938 23.3672 28.397 22.8656 28.0688 22.4812Z" fill="#FF826E"/>
<path d="M29.0625 16.3823C29.0625 14.3414 28.073 12.3923 26.4155 11.1689C26.0736 10.9175 25.6604 10.7817 25.2361 10.7813C24.7163 10.7813 24.2175 10.9865 23.8481 11.3522C23.7802 11.2955 23.7183 11.2331 23.648 11.1792C23.3878 10.9805 23.0756 10.8623 22.755 10.8136L22.9617 8.54063C22.9842 8.28963 22.9542 8.03669 22.8737 7.79791C22.7931 7.55913 22.6637 7.33973 22.4938 7.15367C22.3238 6.96761 22.117 6.81896 21.8864 6.71719C21.6559 6.61541 21.4067 6.56273 21.1547 6.5625H21.0328C20.7808 6.56279 20.5316 6.61553 20.3011 6.71736C20.0706 6.81919 19.8638 6.96789 19.6939 7.154C19.5239 7.3401 19.3946 7.55954 19.3141 7.79834C19.2336 8.03715 19.2037 8.2901 19.2262 8.54109L19.4339 10.8239C19.135 10.8771 18.8522 10.9975 18.6066 11.1759C18.5227 11.2388 18.4481 11.3109 18.3675 11.377C18.3257 11.3342 18.2819 11.2934 18.2362 11.2547C18.263 11.0986 18.2812 10.9406 18.2812 10.7813C18.2824 10.1922 18.097 9.61784 17.7516 9.14063C18.097 8.66344 18.2824 8.0891 18.2812 7.5C18.2812 5.895 16.9233 4.59422 15.3052 4.69266C15.1573 4.27133 14.9109 3.89145 14.5865 3.58469C14.262 3.27794 13.8689 3.0532 13.44 2.92922C12.8691 2.21719 12.0084 1.82203 11.0864 1.88016C10.8947 1.33052 10.5367 0.854191 10.0621 0.517274C9.58738 0.180356 9.01959 -0.000432984 8.4375 8.78897e-07C7.94344 -0.00038991 7.45802 0.129545 7.03022 0.376693C6.60243 0.623841 6.24739 0.979458 6.00094 1.40766C4.75969 1.44938 3.68672 2.32547 3.37922 3.51891C1.92797 4.06031 0.9375 5.46516 0.9375 7.03125C0.936106 7.64243 1.08496 8.24458 1.37097 8.78471C1.65697 9.32485 2.07136 9.7864 2.57766 10.1288C2.42298 10.4823 2.34334 10.8641 2.34375 11.25C2.34375 12.0938 2.71875 12.878 3.36234 13.4091C3.30889 13.6228 3.28166 13.8422 3.28125 14.0625C3.28222 14.7497 3.53435 15.4129 3.99019 15.9272C4.44602 16.4414 5.07412 16.7714 5.75625 16.8548L6.79312 19.7588C6.26125 20.1507 5.80923 20.6408 5.46141 21.2025L3.00563 20.6569C2.81363 20.6143 2.61454 20.6154 2.423 20.66C2.23147 20.7045 2.05237 20.7915 1.89891 20.9145C1.74544 21.0375 1.62152 21.1933 1.53626 21.3705C1.45099 21.5477 1.40657 21.7418 1.40625 21.9384V22.1241C1.40625 22.2553 1.43156 22.38 1.46766 22.5H1.40625C0.630937 22.5 0 23.1309 0 23.9062C0 24.6816 0.630937 25.3125 1.40625 25.3125H1.46766C1.42882 25.4341 1.40813 25.5608 1.40625 25.6884V25.8741C1.40653 26.0707 1.45089 26.2647 1.53607 26.4419C1.62124 26.6191 1.74507 26.7749 1.89843 26.8979C2.05179 27.0209 2.23079 27.1079 2.42224 27.1526C2.61369 27.1973 2.81272 27.1985 3.00469 27.1561L5.46141 26.61C6.37125 28.0791 7.99266 29.0625 9.84375 29.0625H9.95391C10.2145 29.0625 10.4784 29.0423 10.7377 29.0025L26.8116 26.5298C27.4394 26.4361 28.0126 26.1193 28.4259 25.6375C28.8393 25.1557 29.0653 24.5411 29.0625 23.9062C29.0637 23.4042 28.9211 22.9123 28.6518 22.4886C28.3824 22.0649 27.9975 21.7271 27.5423 21.5152C28.5136 20.355 29.0625 18.8831 29.0625 17.3677V16.3823ZM23.078 11.9241C24.4772 12.9938 25.3125 14.6977 25.3125 16.4831V18.2048C25.3125 19.1658 25.073 20.1066 24.6216 20.9461L20.8627 20.3677C20.7064 19.6879 20.6266 18.9928 20.625 18.2953V16.3922C20.625 15.9197 20.6723 15.4477 20.7441 14.9798C20.8589 14.9897 20.9733 15 21.0938 15C22.4302 15 23.4375 14.3953 23.4375 13.5938C23.4375 13.1513 23.1314 12.7584 22.6012 12.5006L22.6702 11.7422C22.8164 11.7717 22.957 11.8308 23.078 11.9241ZM21.0328 7.5H21.1552C21.2769 7.50016 21.3973 7.52566 21.5087 7.57489C21.6201 7.62412 21.72 7.69599 21.8021 7.78593C21.8842 7.87588 21.9467 7.98193 21.9856 8.09733C22.0245 8.21273 22.0389 8.33497 22.028 8.45625L21.6023 13.1377L21.96 13.2525C22.3706 13.3838 22.5 13.5567 22.5 13.5938C22.5 13.7105 22.0012 14.0625 21.0938 14.0625C20.1863 14.0625 19.6875 13.7105 19.6875 13.5938C19.6875 13.5567 19.8169 13.3838 20.2275 13.252L20.5852 13.1372L20.1595 8.45625C20.1486 8.33493 20.163 8.21265 20.202 8.09722C20.2409 7.98178 20.3034 7.87571 20.3855 7.78576C20.4677 7.69581 20.5677 7.62395 20.6791 7.57475C20.7905 7.52555 20.911 7.50009 21.0328 7.5ZM19.5187 11.7577L19.5863 12.5006C19.0561 12.7584 18.75 13.1513 18.75 13.5938C18.75 14.1103 19.1714 14.542 19.8263 14.7858C19.7423 15.3178 19.6875 15.855 19.6875 16.3922V18.2953C19.6875 18.9394 19.7494 19.5825 19.8694 20.2148L17.1061 19.7897C16.9541 19.2749 16.8763 18.7411 16.875 18.2044V16.4827C16.875 14.7 17.7319 12.9966 19.1672 11.9269C19.2717 11.8491 19.3922 11.7919 19.5187 11.7577ZM14.453 19.3814C14.1966 18.7409 14.0641 18.0576 14.0625 17.3677V16.3819C14.0625 14.6372 14.91 12.9703 16.3289 11.9222C16.507 11.7909 16.7283 11.7188 16.9514 11.7188C17.2345 11.7188 17.4952 11.8327 17.6859 12.0234C16.5806 13.2347 15.9375 14.8256 15.9375 16.4831V18.2048C15.9375 18.6881 15.9952 19.1663 16.0997 19.635L14.453 19.3814ZM14.497 5.29734L14.5823 5.77969L15.0605 5.67328C15.1944 5.6422 15.3313 5.626 15.4688 5.625C16.5028 5.625 17.3438 6.46594 17.3438 7.5C17.3443 7.99117 17.1509 8.46268 16.8056 8.81203L16.4831 9.14063L16.8056 9.46922C17.1509 9.81857 17.3443 10.2901 17.3438 10.7813C17.3438 10.7953 17.3409 10.8094 17.3409 10.8239C17.2128 10.7969 17.0823 10.7826 16.9514 10.7813C16.5271 10.7817 16.114 10.9174 15.772 11.1684C14.9306 11.7919 14.2514 12.6084 13.7916 13.5492C13.6204 13.0157 13.4349 12.4869 13.2352 11.9634C13.6688 9.67313 15.277 8.3475 15.2934 8.33391L15 7.96875L14.707 7.60266C14.6419 7.65469 13.3739 8.69016 12.6619 10.5581C11.6864 8.31844 10.7658 6.86953 10.7067 6.77766L9.91781 7.28484C9.93047 7.30406 10.6453 8.42859 11.4773 10.2188C10.0753 9.69094 8.48203 9.83672 8.39062 9.84609L8.48391 10.7789C9.18891 10.7081 11.1858 10.7423 12.1186 11.6944C12.4725 12.5599 12.7856 13.4415 13.057 14.3363C11.632 13.6055 9.93188 13.5938 9.84375 13.5938V14.5313C9.86578 14.5313 11.9527 14.5453 13.1878 15.5273C13.1494 15.8095 13.125 16.0945 13.125 16.3823V17.3681C13.125 18.0014 13.2225 18.6206 13.4034 19.2206L10.7377 18.8105C10.597 18.7889 10.455 18.7744 10.3125 18.7641C9.27844 18.7641 8.4375 17.9166 8.4375 16.8755C8.4375 16.657 8.48109 16.433 8.56641 16.2084L8.70328 15.8498L8.37844 15.6445C8.1666 15.5124 7.98345 15.3391 7.83983 15.1348C7.69621 14.9306 7.59504 14.6996 7.54233 14.4556C7.48961 14.2115 7.48641 13.9594 7.53293 13.7141C7.57944 13.4688 7.67473 13.2353 7.81312 13.0275L8.10516 12.5888L7.63547 12.3502C7.17129 12.1165 6.78127 11.7583 6.509 11.3157C6.23673 10.8731 6.09295 10.3634 6.09375 9.84375C6.09595 9.23358 6.29577 8.64054 6.66328 8.15346C7.03079 7.66637 7.54621 7.31146 8.13234 7.14188L8.42344 7.05844L8.46703 6.75891C8.60063 5.84531 9.39422 5.15625 10.3125 5.15625C10.3298 5.15625 10.3467 5.16 10.3636 5.16234C10.3964 5.16703 10.4297 5.17125 10.463 5.17359L10.7991 5.20078L10.9312 4.89047C11.0751 4.55207 11.3154 4.26349 11.6222 4.0607C11.9289 3.8579 12.2885 3.74984 12.6562 3.75C13.0962 3.74987 13.522 3.90501 13.8587 4.18807C14.1955 4.47114 14.4215 4.86396 14.497 5.29734ZM6.42422 15.9375H6.09375C5.05969 15.9375 4.21875 15.0966 4.21875 14.0625C4.21875 13.8436 4.26234 13.6195 4.34766 13.3959L4.485 13.0373L4.16016 12.832C3.94828 12.6999 3.76509 12.5266 3.62142 12.3224C3.47775 12.1182 3.37654 11.8872 3.32378 11.6432C3.27102 11.3991 3.26778 11.147 3.31426 10.9017C3.36074 10.6563 3.456 10.4228 3.59438 10.215L3.88641 9.77625L3.41672 9.53766C2.95254 9.304 2.56252 8.94583 2.29025 8.50319C2.01798 8.06056 1.8742 7.55092 1.875 7.03125C1.87717 6.42114 2.07692 5.82815 2.44434 5.34107C2.81176 4.85399 3.32708 4.49905 3.91312 4.32938L4.20422 4.24594L4.24781 3.94641C4.38188 3.03281 5.17547 2.34375 6.09375 2.34375C6.11156 2.34375 6.12891 2.3475 6.14625 2.34984C6.17813 2.35406 6.21 2.35828 6.24281 2.36109L6.58031 2.38922L6.71297 2.0775C6.85679 1.73919 7.09701 1.45069 7.40367 1.24797C7.71034 1.04525 8.06989 0.937276 8.4375 0.937501C8.87741 0.937375 9.30325 1.09251 9.63999 1.37557C9.97674 1.65864 10.2028 2.05146 10.2783 2.48484L10.3636 2.96719L10.8417 2.86078C10.9756 2.8297 11.1125 2.8135 11.25 2.8125C11.4656 2.8125 11.6705 2.85984 11.8664 2.92828C11.1715 3.13045 10.5815 3.5933 10.2197 4.22016C8.97844 4.26188 7.90547 5.13797 7.59797 6.33141C6.14672 6.87281 5.15625 8.27766 5.15625 9.84375C5.15486 10.4549 5.30371 11.0571 5.58972 11.5972C5.87572 12.1373 6.29011 12.5989 6.79641 12.9413C6.64173 13.2948 6.56209 13.6766 6.5625 14.0625C6.5625 14.9063 6.9375 15.6905 7.58109 16.222C7.52719 16.4395 7.5 16.658 7.5 16.875C7.5 17.6986 7.85437 18.4387 8.41547 18.9553C8.13703 19.0359 7.86937 19.1405 7.6125 19.2647L6.42422 15.9375ZM2.34375 22.1241V21.9384C2.34375 21.7031 2.57156 21.5217 2.80172 21.5714L5.0325 22.0673C4.97813 22.2089 4.92938 22.3528 4.88766 22.5H2.71969C2.62002 22.4999 2.52447 22.4602 2.454 22.3898C2.38352 22.3193 2.34387 22.2237 2.34375 22.1241ZM0.9375 23.9062C0.9375 23.648 1.14797 23.4375 1.40625 23.4375H4.71094C4.69734 23.5922 4.6875 23.7478 4.6875 23.9062C4.6875 24.0647 4.69734 24.2203 4.71141 24.375H1.40625C1.14797 24.375 0.9375 24.1645 0.9375 23.9062ZM2.80078 26.2411C2.57859 26.2889 2.34375 26.1089 2.34375 25.8741V25.6884C2.34375 25.4812 2.5125 25.3125 2.71969 25.3125H4.88719C4.92891 25.4597 4.97812 25.6036 5.03203 25.7452L2.80078 26.2411ZM28.125 23.9062C28.1269 24.3168 27.9808 24.7143 27.7135 25.026C27.4462 25.3376 27.0756 25.5425 26.6695 25.6031L10.5961 28.0758C10.3836 28.1085 10.1689 28.1249 9.95391 28.125H9.84375C7.51781 28.125 5.625 26.2322 5.625 23.9062C5.625 21.5803 7.51781 19.6875 9.84375 19.6875H9.95391C10.1672 19.6875 10.3833 19.7039 10.5956 19.7362L26.6691 22.2089C27.5128 22.3392 28.125 23.0527 28.125 23.9062ZM28.125 17.3677C28.125 18.8095 27.5414 20.2045 26.5261 21.2386L25.5947 21.0952C26.0254 20.1923 26.2493 19.2047 26.25 18.2044V16.4827C26.25 14.8167 25.6153 13.2178 24.525 12.0047C24.7019 11.8359 24.9328 11.7351 25.1769 11.7202C25.421 11.7053 25.6624 11.7771 25.8586 11.9231C27.2775 12.9703 28.125 14.6377 28.125 16.3823V17.3677Z" fill="black"/>
<path d="M9.375 21.5625H10.3125V26.25H9.375V21.5625ZM13.125 21.5625H14.0625V26.25H13.125V21.5625ZM16.875 21.5625H17.8125V26.25H16.875V21.5625ZM20.625 22.5H21.5625V25.3125H20.625V22.5ZM24.375 22.9688H25.3125V24.8438H24.375V22.9688Z" fill="black"/>
<path d="M133.249 5.30404L133.276 5.58045C133.276 6.33595 133.156 6.98089 132.917 7.51527C132.677 7.69953 132.3 7.84695 131.784 7.95751L136.4 21.6118L139.025 21.9435C139.025 22.699 138.814 23.5006 138.39 24.3482H131.673L131.424 22.828C132.198 22.5332 132.705 22.3397 132.945 22.2475L131.839 19.1242H125.62C125.067 20.7642 124.772 21.621 124.735 21.6947L126.643 21.9435C126.643 22.3305 126.569 22.7819 126.421 23.2979C126.274 23.7954 126.136 24.1455 126.007 24.3482H119.29L119.042 22.828C119.871 22.4779 120.617 22.2199 121.28 22.0541L125.924 7.84695C124.689 7.66268 123.759 7.42313 123.132 7.1283C123.132 6.59392 123.215 6.12404 123.381 5.71865C123.768 5.58966 124.671 5.44224 126.09 5.2764C127.527 5.09213 128.891 5 130.181 5C131.489 5 132.512 5.10135 133.249 5.30404ZM129.683 12.9051L128.881 9.25661H128.605L127.721 13.071L126.421 16.526H131.037L129.683 12.9051Z" fill="#161616"/>
<path d="M117.931 7.45999L117.848 24.3482H114.311L105.189 9.47773C105.115 14.8768 105.069 18.9491 105.051 21.6947L106.958 21.9435C106.958 22.699 106.746 23.5006 106.322 24.3482H99.6059L99.3571 22.828C100.389 22.4042 101.163 22.137 101.679 22.0264C101.679 21.9711 101.596 17.0972 101.43 7.4047L99.136 6.68606L99.3571 5H106.544L114.587 19.4282L114.172 7.4047L111.878 6.68606L112.099 5H119.286C119.267 5 119.267 5.01843 119.286 5.05528C119.323 5.09213 119.359 5.17506 119.396 5.30404C119.452 5.41461 119.507 5.55281 119.562 5.71865C119.673 6.01348 119.746 6.50179 119.783 7.18358C118.844 7.331 118.226 7.42313 117.931 7.45999Z" fill="#161616"/>
<path d="M97.8405 5C97.822 5 97.822 5.01843 97.8405 5.05528C97.8773 5.09213 97.9142 5.17506 97.951 5.30404C98.0063 5.41461 98.0616 5.55281 98.1169 5.71865C98.2274 6.01348 98.3011 6.50179 98.338 7.18358C97.3982 7.331 96.7809 7.42313 96.4861 7.45999L96.3479 21.6947L98.2551 21.9435C98.2551 22.699 98.0431 23.5006 97.6193 24.3482H90.9027L90.654 22.828C91.6859 22.4042 92.4598 22.137 92.9758 22.0264C92.9573 20.9392 92.9297 19.4098 92.8928 17.4381C92.8376 13.0157 92.7823 9.67121 92.727 7.4047L90.4329 6.68606L90.654 5H97.8405Z" fill="#161616"/>
<path d="M89.1338 14.2595C89.1338 18.3134 88.1663 21.1327 86.2315 22.7174C85.4392 23.3439 84.5823 23.777 83.661 24.0165C82.7396 24.2376 81.5327 24.3482 80.0401 24.3482H72.8813L72.6325 22.828C74.0329 22.312 74.8069 22.0448 74.9543 22.0264C74.9543 21.9711 74.8714 17.0972 74.7055 7.4047C73.8947 7.20201 73.13 6.96246 72.4114 6.68606C72.5219 5.72786 72.5956 5.16584 72.6325 5H79.9572C81.763 5 83.2003 5.18427 84.2691 5.55281C85.3562 5.92134 86.3144 6.5755 87.1436 7.51527C88.4704 9.06312 89.1338 11.3112 89.1338 14.2595ZM80.2889 21.6671C82.3895 21.6671 83.7808 21.1604 84.4625 20.1469C85.1628 19.1334 85.5129 17.3828 85.5129 14.8952C85.5129 12.4076 85.1259 10.6018 84.352 9.47773C83.5781 8.33526 82.2882 7.76403 80.4823 7.76403H78.4646C78.3909 13.9739 78.3448 18.6082 78.3264 21.6671H80.2889Z" fill="#161616"/>
<path d="M71.8034 14.2595C71.8034 18.3134 70.836 21.1327 68.9012 22.7174C68.1088 23.3439 67.252 23.777 66.3306 24.0165C65.4093 24.2376 64.2024 24.3482 62.7098 24.3482H55.5509L55.3022 22.828C56.7026 22.312 57.4765 22.0448 57.624 22.0264C57.624 21.9711 57.541 17.0972 57.3752 7.4047C56.5644 7.20201 55.7997 6.96246 55.0811 6.68606C55.1916 5.72786 55.2653 5.16584 55.3022 5H62.6269C64.4327 5 65.87 5.18427 66.9387 5.55281C68.0259 5.92134 68.9841 6.5755 69.8133 7.51527C71.1401 9.06312 71.8034 11.3112 71.8034 14.2595ZM62.9585 21.6671C65.0592 21.6671 66.4504 21.1604 67.1322 20.1469C67.8324 19.1334 68.1825 17.3828 68.1825 14.8952C68.1825 12.4076 67.7956 10.6018 67.0217 9.47773C66.2477 8.33526 64.9579 7.76403 63.152 7.76403H61.1343C61.0606 13.9739 61.0145 18.6082 60.9961 21.6671H62.9585Z" fill="#161616"/>
<path d="M49.2696 5.30404L49.2972 5.58045C49.2972 6.33595 49.1775 6.98089 48.9379 7.51527C48.6984 7.69953 48.3206 7.84695 47.8047 7.95751L52.4206 21.6118L55.0464 21.9435C55.0464 22.699 54.8345 23.5006 54.4107 24.3482H47.6941L47.4453 22.828C48.2193 22.5332 48.726 22.3397 48.9656 22.2475L47.86 19.1242H41.6409C41.0881 20.7642 40.7933 21.621 40.7564 21.6947L42.6636 21.9435C42.6636 22.3305 42.5899 22.7819 42.4425 23.2979C42.295 23.7954 42.1568 24.1455 42.0279 24.3482H35.3113L35.0625 22.828C35.8917 22.4779 36.638 22.2199 37.3014 22.0541L41.9449 7.84695C40.7103 7.66268 39.7798 7.42313 39.1533 7.1283C39.1533 6.59392 39.2362 6.12404 39.402 5.71865C39.789 5.58966 40.6919 5.44224 42.1108 5.2764C43.5481 5.09213 44.9117 5 46.2015 5C47.5098 5 48.5325 5.10135 49.2696 5.30404ZM45.704 12.9051L44.9024 9.25661H44.626L43.7415 13.071L42.4425 16.526H47.0584L45.704 12.9051Z" fill="#161616"/>
</svg>
