<svg width="138" height="29" viewBox="0 0 138 29" fill="none" xmlns="http://www.w3.org/2000/svg">
<path d="M22.8784 1.62489C17.5106 -1.27266 11.7017 0.563577 11.3357 0.684563C1.61387 3.91751 -3.37874 13.8706 2.56338 20.2078C3.73955 21.4636 5.3813 22.4223 7.28339 23.0686C6.73818 22.3687 5.13932 20.0746 4.67682 16.6563C4.61709 16.2137 4.9678 15.8339 5.39814 15.8339C5.43643 15.8339 5.47471 15.837 5.513 15.8431L7.44266 16.1479L8.05219 16.2443C8.56064 16.324 8.97873 16.6854 9.13341 17.1755C9.48412 18.2858 10.4214 20.1756 12.7324 20.1756H18.0588C20.3698 20.1756 21.3071 18.2873 21.6578 17.1755C21.8125 16.6854 22.2306 16.324 22.739 16.2443L23.3486 16.1479L25.2782 15.8431C25.3165 15.837 25.3563 15.8339 25.3931 15.8339C25.8234 15.8339 26.1741 16.2137 26.1144 16.6563C25.877 18.416 25.3716 19.8203 24.8708 20.8572C26.4207 19.8112 27.8802 18.5737 28.7516 16.9167C30.5725 13.4555 29.7271 5.32187 22.8784 1.62489ZM22.6441 15.6394C21.9028 15.7558 21.301 16.275 21.0743 16.9917C21.0207 17.1602 20.9579 17.3332 20.8844 17.5048C20.0727 17.3363 18.042 16.9779 15.3956 16.9779C12.7201 16.9779 10.694 17.3439 9.90986 17.5093C9.83482 17.3348 9.7705 17.1602 9.7169 16.9902C9.49024 16.2734 8.88837 15.7558 8.14714 15.6379L7.58509 15.5491C7.83319 14.5766 8.24362 13.2641 8.92053 11.6913C9.23448 10.9623 9.9068 10.4508 10.694 10.3466C11.7492 10.2073 13.4032 10.0465 15.3971 10.0465C17.3911 10.0465 19.0451 10.2073 20.1003 10.3466C20.8875 10.4508 21.5598 10.9623 21.8737 11.6913C22.5491 13.2626 22.9596 14.575 23.2092 15.5491L22.6441 15.6394Z" fill="#B18B5E"/>
<path d="M7.28027 29H8.41203L11.8027 23.9783C10.7981 23.8956 9.81793 23.7424 8.8822 23.5234L7.28027 29Z" fill="#B18B5E"/>
<path d="M22.3791 29H23.5108L21.6271 22.5571C20.6684 22.94 19.6714 23.2478 18.6545 23.4821L22.3791 29Z" fill="#B18B5E"/>
<path d="M132.056 5.30404L132.083 5.58045C132.083 6.33595 131.964 6.98089 131.724 7.51527C131.485 7.69953 131.107 7.84695 130.591 7.95751L135.207 21.6118L137.833 21.9435C137.833 22.699 137.621 23.5006 137.197 24.3482H130.48L130.231 22.828C131.005 22.5332 131.512 22.3397 131.752 22.2475L130.646 19.1242H124.427C123.874 20.7642 123.579 21.621 123.543 21.6947L125.45 21.9435C125.45 22.3305 125.376 22.7819 125.229 23.2979C125.081 23.7954 124.943 24.1455 124.814 24.3482H118.097L117.849 22.828C118.678 22.4779 119.424 22.2199 120.087 22.0541L124.731 7.84695C123.496 7.66268 122.566 7.42313 121.939 7.1283C121.939 6.59392 122.022 6.12404 122.188 5.71865C122.575 5.58966 123.478 5.44224 124.897 5.2764C126.334 5.09213 127.698 5 128.988 5C130.296 5 131.319 5.10135 132.056 5.30404ZM128.49 12.9051L127.689 9.25661H127.412L126.528 13.071L125.229 16.526H129.845L128.49 12.9051Z" fill="#161616"/>
<path d="M116.739 7.45999L116.656 24.3482H113.118L103.996 9.47773C103.923 14.8768 103.877 18.9491 103.858 21.6947L105.765 21.9435C105.765 22.699 105.553 23.5006 105.13 24.3482H98.413L98.1642 22.828C99.1961 22.4042 99.9701 22.137 100.486 22.0264C100.486 21.9711 100.403 17.0972 100.237 7.4047L97.9431 6.68606L98.1642 5H105.351L113.394 19.4282L112.979 7.4047L110.685 6.68606L110.906 5H118.093C118.074 5 118.074 5.01843 118.093 5.05528C118.13 5.09213 118.167 5.17506 118.203 5.30404C118.259 5.41461 118.314 5.55281 118.369 5.71865C118.48 6.01348 118.554 6.50179 118.59 7.18358C117.651 7.331 117.033 7.42313 116.739 7.45999Z" fill="#161616"/>
<path d="M96.6475 5C96.629 5 96.629 5.01843 96.6475 5.05528C96.6843 5.09213 96.7212 5.17506 96.758 5.30404C96.8133 5.41461 96.8686 5.55281 96.9239 5.71865C97.0344 6.01348 97.1081 6.50179 97.145 7.18358C96.2052 7.331 95.5879 7.42313 95.2931 7.45999L95.1549 21.6947L97.0621 21.9435C97.0621 22.699 96.8502 23.5006 96.4263 24.3482H89.7098L89.461 22.828C90.4929 22.4042 91.2668 22.137 91.7828 22.0264C91.7643 20.9392 91.7367 19.4098 91.6999 17.4381C91.6446 13.0157 91.5893 9.67121 91.534 7.4047L89.2399 6.68606L89.461 5H96.6475Z" fill="#161616"/>
<path d="M87.9408 14.2595C87.9408 18.3134 86.9733 21.1327 85.0385 22.7174C84.2462 23.3439 83.3893 23.777 82.468 24.0165C81.5466 24.2376 80.3397 24.3482 78.8471 24.3482H71.6883L71.4395 22.828C72.8399 22.312 73.6139 22.0448 73.7613 22.0264C73.7613 21.9711 73.6784 17.0972 73.5125 7.4047C72.7017 7.20201 71.937 6.96246 71.2184 6.68606C71.3289 5.72786 71.4027 5.16584 71.4395 5H78.7642C80.57 5 82.0073 5.18427 83.0761 5.55281C84.1633 5.92134 85.1214 6.5755 85.9507 7.51527C87.2774 9.06312 87.9408 11.3112 87.9408 14.2595ZM79.0959 21.6671C81.1965 21.6671 82.5878 21.1604 83.2696 20.1469C83.9698 19.1334 84.3199 17.3828 84.3199 14.8952C84.3199 12.4076 83.9329 10.6018 83.159 9.47773C82.3851 8.33526 81.0952 7.76403 79.2893 7.76403H77.2716C77.1979 13.9739 77.1518 18.6082 77.1334 21.6671H79.0959Z" fill="#161616"/>
<path d="M70.6104 14.2595C70.6104 18.3134 69.643 21.1327 67.7082 22.7174C66.9158 23.3439 66.059 23.777 65.1377 24.0165C64.2163 24.2376 63.0094 24.3482 61.5168 24.3482H54.3579L54.1092 22.828C55.5096 22.312 56.2836 22.0448 56.431 22.0264C56.431 21.9711 56.348 17.0972 56.1822 7.4047C55.3714 7.20201 54.6067 6.96246 53.8881 6.68606C53.9986 5.72786 54.0723 5.16584 54.1092 5H61.4339C63.2397 5 64.677 5.18427 65.7457 5.55281C66.8329 5.92134 67.7911 6.5755 68.6203 7.51527C69.9471 9.06312 70.6104 11.3112 70.6104 14.2595ZM61.7655 21.6671C63.8662 21.6671 65.2574 21.1604 65.9392 20.1469C66.6394 19.1334 66.9896 17.3828 66.9896 14.8952C66.9896 12.4076 66.6026 10.6018 65.8287 9.47773C65.0547 8.33526 63.7649 7.76403 61.959 7.76403H59.9413C59.8676 13.9739 59.8215 18.6082 59.8031 21.6671H61.7655Z" fill="#161616"/>
<path d="M48.0766 5.30404L48.1043 5.58045C48.1043 6.33595 47.9845 6.98089 47.7449 7.51527C47.5054 7.69953 47.1276 7.84695 46.6117 7.95751L51.2276 21.6118L53.8534 21.9435C53.8534 22.699 53.6415 23.5006 53.2177 24.3482H46.5011L46.2524 22.828C47.0263 22.5332 47.533 22.3397 47.7726 22.2475L46.667 19.1242H40.4479C39.8951 20.7642 39.6003 21.621 39.5634 21.6947L41.4706 21.9435C41.4706 22.3305 41.3969 22.7819 41.2495 23.2979C41.102 23.7954 40.9638 24.1455 40.8349 24.3482H34.1183L33.8695 22.828C34.6987 22.4779 35.445 22.2199 36.1084 22.0541L40.7519 7.84695C39.5173 7.66268 38.5868 7.42313 37.9603 7.1283C37.9603 6.59392 38.0432 6.12404 38.209 5.71865C38.596 5.58966 39.4989 5.44224 40.9178 5.2764C42.3551 5.09213 43.7187 5 45.0085 5C46.3168 5 47.3395 5.10135 48.0766 5.30404ZM44.511 12.9051L43.7094 9.25661H43.433L42.5486 13.071L41.2495 16.526H45.8654L44.511 12.9051Z" fill="#161616"/>
</svg>
